<svg width="30" height="38" viewBox="0 0 30 38" fill="none" xmlns="http://www.w3.org/2000/svg">
<path d="M25.5108 13.7027C25.3279 11.543 24.4326 9.50535 22.9655 7.90997C21.4984 6.31458 19.5427 5.25192 17.4059 4.88902C17.5149 3.63512 17.3877 0.981934 14.6073 0.981934C11.8269 0.981934 11.6997 3.63512 11.8088 4.88902C9.67197 5.25192 7.71633 6.31458 6.24923 7.90997C4.78213 9.50535 3.88676 11.543 3.70384 13.7027V24.6062L0.0693359 28.2407V30.0579H29.1453V28.2407L25.5108 24.6062V13.7027ZM14.6073 37.3269C16.0532 37.3269 17.4399 36.7526 18.4623 35.7302C19.4847 34.7078 20.0591 33.3211 20.0591 31.8752H9.15559C9.15559 33.3211 9.72997 34.7078 10.7524 35.7302C11.7748 36.7526 13.1614 37.3269 14.6073 37.3269Z" fill="#F63D68"/>
</svg>
