<svg width="24" height="24" viewBox="0 0 24 24" fill="none" xmlns="http://www.w3.org/2000/svg">
<g clip-path="url(#clip0_526_11838)">
<path d="M19.1999 8.4C19.0791 6.97389 18.4879 5.62834 17.5191 4.57484C16.5503 3.52135 15.2589 2.81964 13.8479 2.58C13.9199 1.752 13.8359 0 11.9999 0C10.1639 0 10.0799 1.752 10.1519 2.58C8.74089 2.81964 7.4495 3.52135 6.48072 4.57484C5.51194 5.62834 4.92069 6.97389 4.7999 8.4V15.6L2.3999 18V19.2H21.5999V18L19.1999 15.6V8.4ZM11.9999 24C12.9547 24 13.8704 23.6207 14.5455 22.9456C15.2206 22.2705 15.5999 21.3548 15.5999 20.4H8.3999C8.3999 21.3548 8.77919 22.2705 9.45432 22.9456C10.1294 23.6207 11.0451 24 11.9999 24Z" fill="#F63D68"/>
</g>
<defs>
<clipPath id="clip0_526_11838">
<rect width="24" height="24" fill="white"/>
</clipPath>
</defs>
</svg>
