<svg width="40" height="39" viewBox="0 0 40 39" fill="none" xmlns="http://www.w3.org/2000/svg">
<circle cx="19.7188" cy="19.5" r="19.5" fill="white"/>
<path d="M19.6525 36.0833C28.7444 36.0833 36.3013 28.5263 36.3013 19.4345C36.3013 10.3266 28.7277 2.78564 19.6358 2.78564C10.5286 2.78564 3.00439 10.3266 3.00439 19.4345C3.00439 28.5263 10.5446 36.0833 19.6525 36.0833ZM12.4703 26.7957C10.7243 26.7957 9.84263 25.9308 9.84263 24.2329V15.5178C9.84263 13.8038 10.7243 12.9389 12.4703 12.9389H14.3478C15.0004 12.9389 15.1961 12.7919 15.5721 12.3998L16.2407 11.6491C16.6655 11.1922 17.0904 10.9471 17.9386 10.9471H21.2682C22.1172 10.9471 22.5413 11.1922 22.9494 11.6491L23.6187 12.3998C23.9948 12.8247 24.1898 12.9389 24.843 12.9389H26.8021C28.5153 12.9389 29.4137 13.8038 29.4137 15.5178V24.2343C29.4137 25.9314 28.5153 26.7971 26.8021 26.7971L12.4703 26.7957ZM19.5383 24.478C22.2474 24.478 24.4189 22.356 24.4189 19.5654C24.4213 18.9238 24.2967 18.2881 24.0522 17.6949C23.8078 17.1016 23.4484 16.5627 22.9947 16.109C22.541 15.6553 22.0021 15.2959 21.4088 15.0515C20.8156 14.807 20.1799 14.6824 19.5383 14.6848C16.8292 14.6848 14.625 16.8556 14.625 19.5654C14.623 20.2112 14.7487 20.8509 14.9949 21.4479C15.2411 22.0449 15.6029 22.5873 16.0596 23.0439C16.5163 23.5005 17.0587 23.8623 17.6557 24.1084C18.2527 24.3545 18.8925 24.4801 19.5383 24.478ZM25.9524 17.3939C26.5569 17.3939 27.0632 16.9043 27.0465 16.2845C27.0465 15.664 26.5569 15.1744 25.9531 15.1744C25.3493 15.1744 24.843 15.664 24.843 16.2845C24.843 16.9043 25.3486 17.3939 25.9524 17.3939ZM19.539 23.058C19.08 23.0589 18.6253 22.9692 18.2011 22.7939C17.7769 22.6187 17.3914 22.3614 17.0668 22.0369C16.7423 21.7123 16.485 21.3268 16.3098 20.9026C16.1345 20.4784 16.0448 20.0237 16.0457 19.5647C16.0457 17.6391 17.6127 16.0881 19.539 16.0881C20.4609 16.0889 21.3449 16.4555 21.9967 17.1075C22.6486 17.7594 23.015 18.6435 23.0156 19.5654C23.0169 20.0231 22.9281 20.4766 22.754 20.8999C22.58 21.3232 22.3242 21.708 22.0013 22.0324C21.6785 22.3568 21.2948 22.6144 20.8723 22.7903C20.4498 22.9663 19.9967 23.0573 19.539 23.058Z" fill="#BBBBBB"/>
</svg>
