<svg width="34" height="33" viewBox="0 0 34 33" fill="none" xmlns="http://www.w3.org/2000/svg">
<path d="M17.0264 31.2957H32.2373M22.0967 5.94414L27.167 11.0144M24.6318 3.40898C25.3042 2.73662 26.2161 2.35889 27.167 2.35889C27.6378 2.35889 28.104 2.45162 28.539 2.6318C28.974 2.81197 29.3692 3.07606 29.7021 3.40898C30.035 3.7419 30.2991 4.13714 30.4793 4.57212C30.6595 5.0071 30.7522 5.47332 30.7522 5.94414C30.7522 6.41496 30.6595 6.88117 30.4793 7.31615C30.2991 7.75114 30.035 8.14637 29.7021 8.47929L8.57584 29.6056L1.81543 31.2957L3.50553 24.5353L24.6318 3.40898Z" stroke="#F63D68" stroke-width="3.38021" stroke-linecap="round" stroke-linejoin="round"/>
</svg>
