<svg width="39" height="39" viewBox="0 0 39 39" fill="none" xmlns="http://www.w3.org/2000/svg">
<path d="M11.2807 3.20703H27.3156C28.1661 3.20703 28.9818 3.54491 29.5832 4.14633C30.1846 4.74775 30.5225 5.56346 30.5225 6.414V14.4314H8.07373V6.414C8.07373 5.56346 8.41161 4.74775 9.01303 4.14633C9.61445 3.54491 10.4302 3.20703 11.2807 3.20703ZM30.5225 30.4663C30.5225 31.3168 30.1846 32.1325 29.5832 32.734C28.9818 33.3354 28.1661 33.6733 27.3156 33.6733V35.2767H24.1086V33.6733H14.4877V35.2767H11.2807V33.6733C10.4302 33.6733 9.61445 33.3354 9.01303 32.734C8.41161 32.1325 8.07373 31.3168 8.07373 30.4663V16.0349H30.5225V30.4663ZM12.8842 8.01749V11.2245H16.0912V8.01749H12.8842ZM12.8842 19.2419V24.0523H16.0912V19.2419H12.8842Z" fill="#F63D68"/>
</svg>
