<svg width="27" height="26" viewBox="0 0 27 26" fill="none" xmlns="http://www.w3.org/2000/svg">
<g clip-path="url(#clip0_329_2478)">
<path d="M25.8303 13.2825C25.8303 12.3993 25.7587 11.5114 25.6059 10.6426H13.3517V15.6455H20.3691C20.0779 17.259 19.1423 18.6863 17.7722 19.5933V22.8395H21.9588C24.4172 20.5767 25.8303 17.2351 25.8303 13.2825Z" fill="#4285F4"/>
<path d="M13.3517 25.9761C16.8557 25.9761 19.8106 24.8256 21.9636 22.8398L17.777 19.5936C16.6122 20.3861 15.1085 20.8348 13.3565 20.8348C9.96716 20.8348 7.09336 18.5482 6.06224 15.4739H1.742V18.8203C3.94747 23.2073 8.43956 25.9761 13.3517 25.9761Z" fill="#34A853"/>
<path d="M6.05744 15.4739C5.51324 13.8604 5.51324 12.1132 6.05744 10.4997V7.15332H1.74198C-0.10068 10.8243 -0.10068 15.1493 1.74198 18.8203L6.05744 15.4739Z" fill="#FBBC04"/>
<path d="M13.3517 5.13389C15.2039 5.10525 16.9941 5.80221 18.3355 7.08158L22.0447 3.37238C19.696 1.16691 16.5788 -0.0456152 13.3517 -0.00742528C8.43956 -0.00742528 3.94747 2.76134 1.742 7.15318L6.05746 10.4996C7.08382 7.42051 9.96238 5.13389 13.3517 5.13389Z" fill="#EA4335"/>
</g>
<defs>
<clipPath id="clip0_329_2478">
<rect width="25.9835" height="25.9835" fill="white" transform="translate(0.156982 -0.00830078)"/>
</clipPath>
</defs>
</svg>
