<svg width="31" height="31" viewBox="0 0 31 31" fill="none" xmlns="http://www.w3.org/2000/svg">
<path d="M17.3407 2.47282C16.2169 1.40099 14.5732 1.40099 13.4494 2.47282L4.39695 11.1059C3.71735 11.754 3.3252 12.7079 3.3252 13.713V27.8198C3.3252 29.2851 4.37594 30.4729 5.67211 30.4729H9.6954C10.9916 30.4729 12.0423 29.2851 12.0423 27.8198V21.7518C12.0423 20.722 12.7689 19.8841 13.6743 19.8574H17.1158C18.0212 19.8841 18.7478 20.722 18.7478 21.7518V27.8198C18.7478 29.2851 19.7986 30.4729 21.0947 30.4729H25.118C26.4142 30.4729 27.4649 29.2851 27.4649 27.8198V13.713C27.4649 12.7079 27.0728 11.754 26.3931 11.1059L17.3407 2.47282Z" fill="#F63D68"/>
<path d="M1.98242 15.3092L15.3934 1.66504L28.8044 15.3092" stroke="#F63D68" stroke-width="2.79881" stroke-linecap="round" stroke-linejoin="round"/>
</svg>
