<svg width="32" height="33" viewBox="0 0 32 33" fill="none" xmlns="http://www.w3.org/2000/svg">
<path d="M16.0373 0.665039C7.34695 0.665039 0.293945 7.71804 0.293945 16.4083C0.293945 25.0987 7.34695 32.1517 16.0373 32.1517C24.7276 32.1517 31.7806 25.0987 31.7806 16.4083C31.7806 7.71804 24.7276 0.665039 16.0373 0.665039ZM16.0373 5.38803C18.6506 5.38803 20.7602 7.49764 20.7602 10.111C20.7602 12.7244 18.6506 14.834 16.0373 14.834C13.4239 14.834 11.3143 12.7244 11.3143 10.111C11.3143 7.49764 13.4239 5.38803 16.0373 5.38803ZM16.0373 27.7435C12.1014 27.7435 8.62216 25.7284 6.59127 22.6742C6.6385 19.5413 12.8886 17.8252 16.0373 17.8252C19.1702 17.8252 25.436 19.5413 25.4832 22.6742C23.4524 25.7284 19.9731 27.7435 16.0373 27.7435Z" fill="#F63D68"/>
</svg>
