<svg width="34" height="35" viewBox="0 0 34 35" fill="none" xmlns="http://www.w3.org/2000/svg">
<path fill-rule="evenodd" clip-rule="evenodd" d="M5.60193 0.147949C4.21851 0.147949 2.89175 0.69751 1.91353 1.67573C0.935303 2.65396 0.385742 3.98071 0.385742 5.36413V29.7063C0.385742 31.0897 0.935303 32.4165 1.91353 33.3947C2.89175 34.3729 4.21851 34.9225 5.60193 34.9225H16.0343C17.4177 34.9225 18.7445 34.3729 19.7227 33.3947C20.7009 32.4165 21.2505 31.0897 21.2505 29.7063V5.36413C21.2505 3.98071 20.7009 2.65396 19.7227 1.67573C18.7445 0.69751 17.4177 0.147949 16.0343 0.147949H5.60193ZM23.4986 9.35104C23.8247 9.02507 24.2669 8.84196 24.7279 8.84196C25.189 8.84196 25.6312 9.02507 25.9572 9.35104L32.9121 16.3059C33.2381 16.632 33.4212 17.0742 33.4212 17.5352C33.4212 17.9963 33.2381 18.4384 32.9121 18.7645L25.9572 25.7194C25.6293 26.0361 25.1901 26.2114 24.7342 26.2074C24.2783 26.2035 23.8422 26.0206 23.5198 25.6982C23.1975 25.3759 23.0146 24.9398 23.0106 24.4839C23.0067 24.028 23.1819 23.5888 23.4986 23.2609L27.4856 19.274H12.5568C12.0957 19.274 11.6534 19.0908 11.3274 18.7647C11.0013 18.4386 10.8181 17.9964 10.8181 17.5352C10.8181 17.0741 11.0013 16.6318 11.3274 16.3058C11.6534 15.9797 12.0957 15.7965 12.5568 15.7965H27.4856L23.4986 11.8096C23.1727 11.4835 22.9896 11.0414 22.9896 10.5803C22.9896 10.1193 23.1727 9.6771 23.4986 9.35104Z" fill="#F63D68"/>
</svg>
