<svg width="94" height="95" viewBox="0 0 94 95" fill="none" xmlns="http://www.w3.org/2000/svg">
<path d="M46.7188 0.78125C20.9583 0.78125 0 21.7395 0 47.5C0 73.2605 20.9583 94.2188 46.7188 94.2188C72.4792 94.2188 93.4375 73.2605 93.4375 47.5C93.4375 21.7395 72.4792 0.78125 46.7188 0.78125ZM35.4389 27.0201C38.2847 24.0036 42.2895 22.3438 46.7188 22.3438C51.148 22.3438 55.1169 24.0148 57.9739 27.0471C60.8691 30.1197 62.2774 34.248 61.945 38.6863C61.2802 47.5 54.452 54.6875 46.7188 54.6875C38.9855 54.6875 32.1438 47.5 31.4925 38.6841C31.1623 34.2099 32.5684 30.0681 35.4389 27.0201ZM46.7188 87.0312C41.4415 87.0347 36.2172 85.9785 31.3558 83.9251C26.4944 81.8717 22.0948 78.8631 18.418 75.0775C20.5238 72.0744 23.207 69.5211 26.3107 67.5666C32.036 63.8965 39.2819 61.875 46.7188 61.875C54.1556 61.875 61.4015 63.8965 67.12 67.5666C70.2263 69.5202 72.9119 72.0736 75.0195 75.0775C71.343 78.8635 66.9435 81.8724 62.082 83.9258C57.2205 85.9792 51.9961 87.0352 46.7188 87.0312Z" fill="#BBBBBB"/>
</svg>
