<svg width="31" height="31" viewBox="0 0 31 31" fill="none" xmlns="http://www.w3.org/2000/svg">
<path d="M15.2096 0.979004C17.1731 0.979004 19.0563 1.75903 20.4447 3.14747C21.8332 4.53592 22.6132 6.41906 22.6132 8.38262C22.6132 10.3462 21.8332 12.2293 20.4447 13.6178C19.0563 15.0062 17.1731 15.7862 15.2096 15.7862C13.246 15.7862 11.3629 15.0062 9.97443 13.6178C8.58598 12.2293 7.80596 10.3462 7.80596 8.38262C7.80596 6.41906 8.58598 4.53592 9.97443 3.14747C11.3629 1.75903 13.246 0.979004 15.2096 0.979004ZM15.2096 19.488C23.3906 19.488 30.0168 22.8012 30.0168 26.8917V30.5935H0.402344V26.8917C0.402344 22.8012 7.02858 19.488 15.2096 19.488Z" fill="#F63D68"/>
</svg>
