<svg width="40" height="38" viewBox="0 0 40 38" fill="none" xmlns="http://www.w3.org/2000/svg">
<path d="M20 18.4683H1.5C1.5 27.6843 13.097 35.6083 13.097 35.6083H20" stroke="#F63D68" stroke-width="3" stroke-linecap="round" stroke-linejoin="round"/>
<path d="M6.88379 20.5739C6.88379 27.3659 14.5118 32.3779 14.5118 32.3779M19.9998 18.4679H38.4998C38.4998 27.6839 26.9028 35.6079 26.9028 35.6079H19.9998M10.0938 18.4679C8.74779 13.4289 17.7478 9.96492 25.8238 8.89492L26.6138 7.44092L29.7978 11.3109L28.0508 11.5949C27.1958 14.4049 22.9158 18.4679 22.9158 18.4679" stroke="#F63D68" stroke-width="3" stroke-linecap="round" stroke-linejoin="round"/>
<path d="M11.5098 18.4682C11.7978 15.8742 14.8058 12.9542 26.2818 9.44922" stroke="#F63D68" stroke-width="3" stroke-linecap="round" stroke-linejoin="round"/>
<path d="M26.5778 9.81012C22.2378 11.9841 17.1778 14.4821 13.6318 18.4681M27.4248 10.8371C22.9148 16.9631 19.9998 18.4681 19.9998 18.4681M17.5048 18.4681C20.2248 16.8781 26.9948 10.3141 26.9948 10.3141M29.0768 10.4531L37.2278 3.84812C37.3618 3.73978 37.4732 3.60607 37.5554 3.45464C37.6377 3.30322 37.6892 3.13705 37.7072 2.96566C37.7251 2.79428 37.709 2.62103 37.6599 2.45586C37.6108 2.29069 37.5295 2.13684 37.4208 2.00312C37.3124 1.86936 37.1787 1.75827 37.0274 1.67618C36.8761 1.5941 36.71 1.54262 36.5388 1.5247C36.3676 1.50678 36.1945 1.52276 36.0294 1.57173C35.8644 1.6207 35.7106 1.70171 35.5768 1.81012L27.4248 8.41512" stroke="#F63D68" stroke-width="3" stroke-linecap="round" stroke-linejoin="round"/>
</svg>
