<svg width="31" height="31" viewBox="0 0 31 31" fill="none" xmlns="http://www.w3.org/2000/svg">
<path fill-rule="evenodd" clip-rule="evenodd" d="M26.1053 2.44737C26.1053 1.79829 25.8474 1.17579 25.3884 0.716818C24.9295 0.257847 24.307 0 23.6579 0C23.0088 0 22.3863 0.257847 21.9273 0.716818C21.4684 1.17579 21.2105 1.79829 21.2105 2.44737V3.26316H2.44737C1.79829 3.26316 1.17579 3.521 0.716818 3.97998C0.257847 4.43895 0 5.06144 0 5.71053C0 6.35961 0.257847 6.98211 0.716818 7.44108C1.17579 7.90005 1.79829 8.15789 2.44737 8.15789H21.2105V8.97368C21.2105 9.62277 21.4684 10.2453 21.9273 10.7042C22.3863 11.1632 23.0088 11.4211 23.6579 11.4211C24.307 11.4211 24.9295 11.1632 25.3884 10.7042C25.8474 10.2453 26.1053 9.62277 26.1053 8.97368V8.15789H28.5526C29.2017 8.15789 29.8242 7.90005 30.2832 7.44108C30.7422 6.98211 31 6.35961 31 5.71053C31 5.06144 30.7422 4.43895 30.2832 3.97998C29.8242 3.521 29.2017 3.26316 28.5526 3.26316H26.1053V2.44737ZM2.44737 13.0526C1.79829 13.0526 1.17579 13.3105 0.716818 13.7694C0.257847 14.2284 0 14.8509 0 15.5C0 16.1491 0.257847 16.7716 0.716818 17.2306C1.17579 17.6895 1.79829 17.9474 2.44737 17.9474H4.89474V18.7632C4.89474 19.4122 5.15258 20.0347 5.61155 20.4937C6.07052 20.9527 6.69302 21.2105 7.3421 21.2105C7.99119 21.2105 8.61369 20.9527 9.07266 20.4937C9.53163 20.0347 9.78947 19.4122 9.78947 18.7632V17.9474H28.5526C29.2017 17.9474 29.8242 17.6895 30.2832 17.2306C30.7422 16.7716 31 16.1491 31 15.5C31 14.8509 30.7422 14.2284 30.2832 13.7694C29.8242 13.3105 29.2017 13.0526 28.5526 13.0526H9.78947V12.2368C9.78947 11.9154 9.72617 11.5972 9.60318 11.3003C9.48019 11.0033 9.29992 10.7336 9.07266 10.5063C8.8454 10.279 8.5756 10.0988 8.27867 9.97577C7.98174 9.85278 7.6635 9.78947 7.3421 9.78947C7.02071 9.78947 6.70247 9.85278 6.40554 9.97577C6.10861 10.0988 5.83881 10.279 5.61155 10.5063C5.38429 10.7336 5.20402 11.0033 5.08103 11.3003C4.95804 11.5972 4.89474 11.9154 4.89474 12.2368V13.0526H2.44737ZM0 25.2895C0 24.6404 0.257847 24.0179 0.716818 23.5589C1.17579 23.1 1.79829 22.8421 2.44737 22.8421H21.2105V22.0263C21.2105 21.3772 21.4684 20.7547 21.9273 20.2958C22.3863 19.8368 23.0088 19.5789 23.6579 19.5789C24.307 19.5789 24.9295 19.8368 25.3884 20.2958C25.8474 20.7547 26.1053 21.3772 26.1053 22.0263V22.8421H28.5526C29.2017 22.8421 29.8242 23.1 30.2832 23.5589C30.7422 24.0179 31 24.6404 31 25.2895C31 25.9386 30.7422 26.5611 30.2832 27.02C29.8242 27.479 29.2017 27.7368 28.5526 27.7368H26.1053V28.5526C26.1053 29.2017 25.8474 29.8242 25.3884 30.2832C24.9295 30.7422 24.307 31 23.6579 31C23.0088 31 22.3863 30.7422 21.9273 30.2832C21.4684 29.8242 21.2105 29.2017 21.2105 28.5526V27.7368H2.44737C1.79829 27.7368 1.17579 27.479 0.716818 27.02C0.257847 26.5611 0 25.9386 0 25.2895Z" fill="#F63D68"/>
</svg>
