<svg width="32" height="31" viewBox="0 0 32 31" fill="none" xmlns="http://www.w3.org/2000/svg">
<path d="M5.01999 11.8057C5.01999 8.89016 6.1782 6.09398 8.23983 4.03235C10.3015 1.97071 13.0976 0.8125 16.0132 0.8125C18.9288 0.8125 21.725 1.97071 23.7866 4.03235C25.8483 6.09398 27.0065 8.89016 27.0065 11.8057V13.4312C29.67 13.8128 31.7179 16.1041 31.7179 18.8728V19.2654C31.7179 22.053 29.3135 24.4967 26.4851 24.3663C25.3229 27.6957 22.3673 29.9399 19.1777 30.5084C18.4396 30.7785 17.5664 30.6513 16.7985 30.6513C16.1737 30.6513 15.5745 30.4031 15.1327 29.9613C14.691 29.5196 14.4428 28.9204 14.4428 28.2956C14.4428 27.6708 14.691 27.0717 15.1327 26.6299C15.5745 26.1881 16.1737 25.9399 16.7985 25.9399C18.0438 25.9399 19.4227 25.7593 20.2645 26.8963C22.2998 25.9274 23.8656 23.881 23.8656 21.2285V11.8057C23.8656 9.72318 23.0383 7.72591 21.5657 6.25332C20.0931 4.78072 18.0958 3.95343 16.0132 3.95343C13.9307 3.95343 11.9334 4.78072 10.4608 6.25332C8.98821 7.72591 8.16091 9.72318 8.16091 11.8057V21.6211C8.16091 22.35 7.87136 23.0491 7.35595 23.5645C6.84054 24.0799 6.1415 24.3695 5.4126 24.3695C4.05893 24.3695 2.76071 23.8317 1.80352 22.8745C0.846336 21.9173 0.308594 20.6191 0.308594 19.2654V18.8728C0.308255 17.5508 0.784381 16.273 1.6497 15.2736C2.51502 14.2741 3.71155 13.62 5.01999 13.4312V11.8057Z" fill="#F63D68"/>
</svg>
