<svg width="42" height="24" viewBox="0 0 42 24" fill="none" xmlns="http://www.w3.org/2000/svg">
<path d="M0.889221 11.7774C0.889675 14.869 2.11752 17.8339 4.30294 20.0206C6.48835 22.2073 9.45253 23.4369 12.5441 23.4391H30.2856C33.3784 23.4391 36.3446 22.2105 38.5316 20.0235C40.7186 17.8365 41.9473 14.8703 41.9473 11.7774C41.9473 8.68455 40.7186 5.71835 38.5316 3.53136C36.3446 1.34436 33.3784 0.115723 30.2856 0.115723H12.5526C9.46109 0.116175 6.49619 1.34402 4.30949 3.52944C2.12279 5.71486 0.8932 8.67904 0.89093 11.7706L0.889221 11.7774ZM12.5509 4.00239C13.5713 4.00239 14.5817 4.20336 15.5243 4.59384C16.467 4.98431 17.3236 5.55664 18.0451 6.27814C18.7666 6.99965 19.3389 7.85619 19.7294 8.79888C20.1199 9.74157 20.3208 10.7519 20.3208 11.7723C20.3208 12.7927 20.1199 13.803 19.7294 14.7457C19.3389 15.6884 18.7666 16.545 18.0451 17.2665C17.3236 17.988 16.467 18.5603 15.5243 18.9508C14.5817 19.3412 13.5713 19.5422 12.5509 19.5422C11.5306 19.5424 10.5202 19.3417 9.57738 18.9514C8.63461 18.5611 7.77794 17.989 7.05627 17.2677C6.33461 16.5463 5.76209 15.6899 5.37141 14.7473C4.98073 13.8047 4.77953 12.7944 4.77931 11.774C4.77908 10.7537 4.97984 9.74324 5.3701 8.80046C5.76037 7.85769 6.33251 7.00102 7.05386 6.27935C7.7752 5.55769 8.63162 4.98518 9.57422 4.59449C10.5168 4.20381 11.5272 4.00261 12.5475 4.00239H12.5509Z" fill="#BBBBBB"/>
</svg>
