<svg width="42" height="24" viewBox="0 0 42 24" fill="none" xmlns="http://www.w3.org/2000/svg">
<path d="M41.9955 11.7774C41.9951 14.869 40.7672 17.8339 38.5818 20.0206C36.3964 22.2073 33.4322 23.4369 30.3407 23.4391H12.5992C9.50633 23.4391 6.54013 22.2105 4.35314 20.0235C2.16614 17.8365 0.9375 14.8703 0.9375 11.7774C0.9375 8.68455 2.16614 5.71835 4.35314 3.53136C6.54013 1.34436 9.50633 0.115723 12.5992 0.115723H30.3321C33.4237 0.116175 36.3886 1.34402 38.5753 3.52944C40.762 5.71486 41.9916 8.67904 41.9938 11.7706L41.9955 11.7774ZM30.3338 4.00239C29.3135 4.00239 28.3031 4.20336 27.3604 4.59384C26.4177 4.98431 25.5612 5.55664 24.8397 6.27814C24.1182 6.99965 23.5458 7.85619 23.1554 8.79888C22.7649 9.74157 22.5639 10.7519 22.5639 11.7723C22.5639 12.7927 22.7649 13.803 23.1554 14.7457C23.5458 15.6884 24.1182 16.545 24.8397 17.2665C25.5612 17.988 26.4177 18.5603 27.3604 18.9508C28.3031 19.3412 29.3135 19.5422 30.3338 19.5422C31.3542 19.5424 32.3646 19.3417 33.3074 18.9514C34.2502 18.5611 35.1068 17.989 35.8285 17.2677C36.5502 16.5463 37.1227 15.6899 37.5134 14.7473C37.904 13.8047 38.1052 12.7944 38.1055 11.774C38.1057 10.7537 37.9049 9.74324 37.5147 8.80046C37.1244 7.85769 36.5523 7.00102 35.8309 6.27935C35.1096 5.55769 34.2531 4.98518 33.3105 4.59449C32.3679 4.20381 31.3576 4.00261 30.3373 4.00239H30.3338Z" fill="#F63D68"/>
</svg>
