<svg width="34" height="34" viewBox="0 0 34 34" fill="none" xmlns="http://www.w3.org/2000/svg">
<path d="M16.7837 0.480469C13.5389 0.480469 10.367 1.44265 7.66914 3.24533C4.97123 5.04802 2.86846 7.61025 1.62675 10.608C0.385038 13.6058 0.0601497 16.9044 0.693169 20.0868C1.32619 23.2692 2.88868 26.1924 5.18307 28.4868C7.47745 30.7812 10.4007 32.3437 13.5831 32.9767C16.7655 33.6097 20.0641 33.2848 23.0619 32.0431C26.0596 30.8014 28.6219 28.6987 30.4245 26.0007C32.2272 23.3028 33.1894 20.131 33.1894 16.8862C33.1848 12.5365 31.4549 8.36635 28.3792 5.29067C25.3035 2.21499 21.1333 0.485062 16.7837 0.480469ZM22.7244 21.0413C22.8417 21.1585 22.9347 21.2977 22.9982 21.4509C23.0616 21.6041 23.0943 21.7683 23.0943 21.9341C23.0943 22.0999 23.0616 22.2641 22.9982 22.4173C22.9347 22.5705 22.8417 22.7097 22.7244 22.827C22.6072 22.9442 22.468 23.0372 22.3148 23.1007C22.1616 23.1641 21.9974 23.1968 21.8316 23.1968C21.6658 23.1968 21.5016 23.1641 21.3484 23.1007C21.1952 23.0372 21.056 22.9442 20.9387 22.827L16.7837 18.6703L12.6286 22.827C12.5114 22.9442 12.3722 23.0372 12.219 23.1007C12.0658 23.1641 11.9016 23.1968 11.7358 23.1968C11.5699 23.1968 11.4057 23.1641 11.2525 23.1007C11.0994 23.0372 10.9602 22.9442 10.8429 22.827C10.7257 22.7097 10.6326 22.5705 10.5692 22.4173C10.5057 22.2641 10.4731 22.0999 10.4731 21.9341C10.4731 21.7683 10.5057 21.6041 10.5692 21.4509C10.6326 21.2977 10.7257 21.1585 10.8429 21.0413L14.9996 16.8862L10.8429 12.7311C10.6061 12.4943 10.4731 12.1732 10.4731 11.8383C10.4731 11.5034 10.6061 11.1822 10.8429 10.9454C11.0797 10.7086 11.4009 10.5756 11.7358 10.5756C12.0706 10.5756 12.3918 10.7086 12.6286 10.9454L16.7837 15.1021L20.9387 10.9454C21.056 10.8282 21.1952 10.7352 21.3484 10.6717C21.5016 10.6083 21.6658 10.5756 21.8316 10.5756C21.9974 10.5756 22.1616 10.6083 22.3148 10.6717C22.468 10.7352 22.6072 10.8282 22.7244 10.9454C22.8417 11.0627 22.9347 11.2019 22.9982 11.3551C23.0616 11.5083 23.0943 11.6725 23.0943 11.8383C23.0943 12.0041 23.0616 12.1683 22.9982 12.3215C22.9347 12.4747 22.8417 12.6139 22.7244 12.7311L18.5678 16.8862L22.7244 21.0413Z" fill="#F63D68"/>
</svg>
